<?xml version="1.0" encoding="UTF-8" standalone="no"?>
<!-- Created with Inkscape (http://www.inkscape.org/) -->

<svg
   version="1.1"
   id="svg251"
   xml:space="preserve"
   width="741.45013"
   height="348.64111"
   viewBox="0 0 1482.9003 697.28223"
   sodipodi:docname="CRAF logo dark background.svg"
   inkscape:version="1.1.2 (b8e25be833, 2022-02-05)"
   xmlns:inkscape="http://www.inkscape.org/namespaces/inkscape"
   xmlns:sodipodi="http://sodipodi.sourceforge.net/DTD/sodipodi-0.dtd"
   xmlns="http://www.w3.org/2000/svg"
   xmlns:svg="http://www.w3.org/2000/svg"><defs
     id="defs255"><clipPath
       clipPathUnits="userSpaceOnUse"
       id="clipPath303"><path
         d="M 0,903 H 1920 V 0 H 0 Z"
         id="path301" /></clipPath></defs><sodipodi:namedview
     id="namedview253"
     pagecolor="#ffffff"
     bordercolor="#666666"
     borderopacity="1.0"
     inkscape:pageshadow="2"
     inkscape:pageopacity="0"
     inkscape:pagecheckerboard="0"
     showgrid="false"
     fit-margin-left="20"
     fit-margin-top="20"
     fit-margin-bottom="20"
     fit-margin-right="20"
     scale-x="2"
     inkscape:zoom="0.846875"
     inkscape:cx="317.04797"
     inkscape:cy="15.350554"
     inkscape:window-width="1920"
     inkscape:window-height="1147"
     inkscape:window-x="-8"
     inkscape:window-y="-8"
     inkscape:window-maximized="1"
     inkscape:current-layer="layer2" /><g
     inkscape:groupmode="layer"
     id="layer2"
     inkscape:label="background"><rect
       style="fill:#0e2241;fill-opacity:1;stroke-width:2"
       id="rect16690"
       width="1482.9003"
       height="697.28198"
       x="0"
       y="0" /></g><g
     id="g257"
     inkscape:groupmode="layer"
     inkscape:label="CRAF final"
     transform="matrix(1.3333333,0,0,-1.3333333,-538.54959,950.64104)"><g
       id="g261"
       transform="translate(987.3324,317.5914)"><path
         d="m 0,0 -9.064,25.45 -25.45,9.064 25.45,9.064 L 0,69.028 9.064,43.578 34.514,34.514 9.064,25.45 Z"
         style="fill:#e59e3c;fill-opacity:1;fill-rule:nonzero;stroke:none"
         id="path263" /></g><g
       id="g265"
       transform="translate(1265.099,220.0191)"><path
         d="m 0,0 -9.064,25.45 -25.45,9.064 25.45,9.064 L 0,69.028 9.064,43.578 34.514,34.514 9.064,25.45 Z"
         style="fill:#e59e3c;fill-opacity:1;fill-rule:nonzero;stroke:none"
         id="path267" /></g><g
       id="g269"
       transform="translate(1113.1665,225.0666)"><path
         d="m 0,0 -9.064,25.45 -25.45,9.064 25.45,9.064 L 0,69.028 9.064,43.578 34.514,34.514 9.064,25.45 Z"
         style="fill:#e59e3c;fill-opacity:1;fill-rule:nonzero;stroke:none"
         id="path271" /></g><g
       id="g273"
       transform="translate(937.2323,473.895)"><path
         d="m 0,0 -9.064,25.45 -25.45,9.064 25.45,9.064 L 0,69.028 9.064,43.578 34.514,34.514 9.064,25.45 Z"
         style="fill:#e59e3c;fill-opacity:1;fill-rule:nonzero;stroke:none"
         id="path275" /></g><g
       id="g277"
       transform="translate(948.231,563.079)"><path
         d="M 0,0 -4.985,13.998 -18.983,18.983 -4.985,23.968 0,37.965 4.985,23.968 18.983,18.983 4.985,13.998 Z"
         style="fill:#e59e3c;fill-opacity:1;fill-rule:nonzero;stroke:none"
         id="path279" /></g><g
       id="g281"
       transform="translate(952.8184,401.7298)"><path
         d="M 0,0 -4.985,13.998 -18.983,18.983 -4.985,23.968 0,37.965 4.985,23.968 18.983,18.983 4.985,13.998 Z"
         style="fill:#e59e3c;fill-opacity:1;fill-rule:nonzero;stroke:none"
         id="path283" /></g><g
       id="g285"
       transform="translate(1039.1035,280.0881)"><path
         d="M 0,0 -4.985,13.998 -18.983,18.983 -4.985,23.968 0,37.965 4.985,23.968 18.983,18.983 4.985,13.998 Z"
         style="fill:#e59e3c;fill-opacity:1;fill-rule:nonzero;stroke:none"
         id="path287" /></g><g
       id="g289"
       transform="translate(1189.1328,226.5202)"><path
         d="M 0,0 -4.985,13.998 -18.983,18.983 -4.985,23.968 0,37.965 4.985,23.968 18.983,18.983 4.985,13.998 Z"
         style="fill:#e59e3c;fill-opacity:1;fill-rule:nonzero;stroke:none"
         id="path291" /></g><g
       id="g293"
       transform="translate(979.5833,613.9528)"><path
         d="m 0,0 -9.064,25.45 -25.45,9.064 25.45,9.064 L 0,69.028 9.064,43.578 34.514,34.514 9.064,25.45 Z"
         style="fill:#e59e3c;fill-opacity:1;fill-rule:nonzero;stroke:none"
         id="path295" /></g><g
       id="g297"><g
         id="g299"
         clip-path="url(#clipPath303)"><g
           id="g305"
           transform="translate(433.9122,480.3919)"><path
             d="m 0,0 c 0,69.664 45.378,109.294 101.622,109.294 26.842,0 49.214,-12.785 63.914,-26.845 L 135.497,48.572 c -9.586,8.312 -19.813,13.425 -33.875,13.425 -25.565,0 -45.378,-22.372 -45.378,-60.078 0,-38.99 19.813,-60.717 47.935,-60.717 13.422,0 24.925,7.027 33.874,16.614 l 30.039,-33.233 C 150.836,-95.869 126.548,-106.095 98.426,-106.095 46.655,-106.095 0,-70.943 0,0"
             style="fill:#ffffff;fill-opacity:1;fill-rule:nonzero;stroke:none"
             id="path307" /></g><g
           id="g309"
           transform="translate(783.0379,542.3887)"><path
             d="m 0,0 h 18.536 c 21.729,0 33.235,-5.753 33.235,-23.651 0,-17.893 -11.506,-27.48 -33.235,-27.48 H 0 Z M 116.961,-164.259 71.82,-83.601 c 20.218,10.891 33.638,30.276 33.638,59.95 0,51.77 -38.348,67.11 -83.086,67.11 H -54.964 V -164.259 H 0 v 69.664 h 19.845 l 35.759,-69.664 z"
             style="fill:#ffffff;fill-opacity:1;fill-rule:nonzero;stroke:none"
             id="path311" /></g><g
           id="g313"
           transform="translate(1343.8784,585.8474)"><path
             d="M 0,0 H 142.209 V -46.018 H 54.97 v -39.625 h 74.777 v -46.018 H 54.97 v -76.056 H 0 Z"
             style="fill:#ffffff;fill-opacity:1;fill-rule:nonzero;stroke:none"
             id="path315" /></g><g
           id="g317"
           transform="translate(1102.3198,464.7353)"><path
             d="m 0,0 3.321,14.377 c 4.474,19.813 9.907,44.743 14.38,65.83 H 18.98 C 23.454,59.12 29.527,34.19 34,14.377 L 37.321,0 Z m 57.329,-86.605 h 58.16 L 52.853,121.112 h -66.47 L -76.251,-86.605 h 56.243 l 10.188,44.098 h 56.961 z"
             style="fill:#ffffff;fill-opacity:1;fill-rule:nonzero;stroke:none"
             id="path319" /></g><g
           id="g321"
           transform="translate(1227.627,495.7746)"><path
             d="m 0,0 -9.064,25.45 -25.45,9.064 25.45,9.064 L 0,69.028 9.064,43.578 34.514,34.514 9.064,25.45 Z"
             style="fill:#e59e3c;fill-opacity:1;fill-rule:nonzero;stroke:none"
             id="path323" /></g></g></g></g></svg>
