<svg version="1.1" id="Layer_1" xmlns="http://www.w3.org/2000/svg" xmlns:xlink="http://www.w3.org/1999/xlink" x="0px" y="0px"
	 width="100%" viewBox="0 0 336 400" enable-background="new 0 0 336 400" xml:space="preserve">
<path fill="#000000" opacity="1.000000" stroke="none" 
	d="
M142.583344,1.000000 
	C145.964386,3.814787 147.558960,7.539048 149.541214,10.988704 
	C170.293594,47.103352 191.034393,83.224770 211.679916,119.400505 
	C213.288666,122.219406 215.254715,123.900002 218.393661,124.749771 
	C227.869339,127.315025 237.315201,130.006042 246.694519,132.901260 
	C249.259018,133.692871 251.092819,133.104675 253.198517,131.817307 
	C264.712799,124.777817 276.289703,117.840698 287.850403,110.877228 
	C288.990845,110.190315 290.104828,109.388710 291.340546,108.945839 
	C293.708618,108.097130 295.978180,108.148209 297.454346,110.654968 
	C298.941010,113.179573 297.938660,115.253593 295.894440,116.746758 
	C293.480621,118.509880 290.845276,119.973518 288.282440,121.528130 
	C278.311523,127.576408 268.353027,133.645660 258.338959,139.621811 
	C255.892868,141.081619 254.566132,142.881073 253.994949,145.818436 
	C252.029678,155.924988 249.681107,165.956772 247.501511,176.022003 
	C246.838882,179.081940 247.431274,181.848038 249.028214,184.618652 
	C269.411743,219.983826 289.715179,255.395172 310.057709,290.783997 
	C313.119965,296.111298 311.675476,299.137543 305.584961,300.237640 
	C268.889008,306.865875 233.951920,301.032440 200.894867,284.436829 
	C193.776566,280.863251 188.673889,281.072052 182.721115,286.713806 
	C184.724243,290.468933 186.833160,294.548767 189.054581,298.566406 
	C204.291580,326.123718 219.557800,353.664886 234.801361,381.218597 
	C238.800125,388.446594 236.060486,393.066132 227.739609,393.071777 
	C165.908340,393.113800 104.077057,393.144501 42.245785,393.157318 
	C33.657177,393.159088 30.939070,388.468567 35.035557,380.917297 
	C51.401138,350.749634 67.695953,320.543213 84.191742,290.446960 
	C86.275398,286.645355 85.975227,284.825531 82.251625,282.162262 
	C58.070957,264.867340 43.938938,241.392502 40.661148,211.738693 
	C36.931877,178.000427 49.498070,150.556900 73.815552,127.843689 
	C79.799919,122.254135 86.398666,117.440491 93.308212,113.067627 
	C95.425980,111.727348 96.538643,110.215347 96.796486,107.528976 
	C100.209534,71.970428 112.665520,39.686584 132.413788,10.079059 
	C134.260712,7.310051 135.993301,4.464771 137.889481,1.327451 
	C139.388885,1.000000 140.777786,1.000000 142.583344,1.000000 
M201.139603,274.269318 
	C222.898315,285.533203 245.782318,292.536591 271.810974,293.238953 
	C222.673035,209.284164 174.152573,126.384361 125.685860,43.576412 
	C123.595604,44.496193 123.187347,45.649490 122.722389,46.679195 
	C107.192497,81.071846 100.888130,116.784668 108.997475,154.062210 
	C120.765045,208.156097 152.479797,247.330933 201.139603,274.269318 
M90.689964,298.140167 
	C75.481911,326.273315 60.273861,354.406464 44.726170,383.167908 
	C105.493515,383.167908 164.793182,383.167908 224.200775,383.167908 
	C223.934311,380.406006 222.622070,378.623840 221.595596,376.764404 
	C206.388138,349.216431 191.082642,321.722260 175.972443,294.121185 
	C174.181458,290.849701 172.489578,290.622589 169.252335,291.837982 
	C147.125671,300.145233 124.814590,300.938690 102.406898,292.877655 
	C95.125923,290.258392 95.136856,290.227631 91.280685,297.059265 
	C91.198891,297.204163 91.128929,297.355743 90.689964,298.140167 
M51.308243,182.715530 
	C46.729366,203.610046 49.670258,223.363724 59.593929,242.473251 
	C61.941681,240.887726 62.445763,239.045364 63.257229,237.450043 
	C74.885910,214.587952 86.416618,191.675735 98.134186,168.859436 
	C100.207115,164.823044 101.198212,161.111710 99.921677,156.504868 
	C98.602585,151.744385 98.631973,146.625168 97.534927,141.784470 
	C96.172035,135.770645 97.319351,129.561447 95.981583,122.664375 
	C73.591927,137.448624 57.948257,156.206528 51.308243,182.715530 
M198.934799,116.042610 
	C179.728302,82.491150 160.521790,48.939693 141.002197,14.841294 
	C136.930893,19.632792 134.787384,24.343342 131.958511,28.597610 
	C130.224915,31.204695 130.601944,33.366512 132.111832,35.934734 
	C146.362656,60.174389 160.514420,84.472275 174.709442,108.744781 
	C175.625885,110.311867 176.324982,112.265594 178.162186,112.878418 
	C185.278519,115.252167 192.410126,117.619888 200.352615,119.105446 
	C199.770676,117.780640 199.507309,117.181053 198.934799,116.042610 
M154.612167,255.728149 
	C153.533234,253.649338 151.693069,253.205811 149.553986,253.320679 
	C138.928513,253.891357 128.304260,254.491989 117.674675,254.973770 
	C114.846657,255.101959 113.136192,256.351532 111.856247,258.842133 
	C108.736855,264.912048 105.583534,270.977631 102.111374,276.848297 
	C99.925629,280.543915 100.717987,282.188873 104.641708,283.770599 
	C118.008698,289.159119 131.882660,289.867554 145.892532,288.312225 
	C153.572510,287.459595 161.163239,285.540833 168.849274,281.651031 
	C164.065659,272.942413 159.520920,264.668701 154.612167,255.728149 
M258.227570,251.338959 
	C265.698730,264.147552 273.153320,276.965912 280.664856,289.750793 
	C281.479980,291.138123 282.162964,293.397095 283.964691,293.162659 
	C288.776031,292.536560 293.955627,293.765228 299.001129,290.526794 
	C280.719299,258.627991 262.556091,226.936188 243.745834,194.115341 
	C242.094101,202.159714 240.700500,208.929474 239.315720,215.701019 
	C238.845383,218.000931 239.807480,219.903503 240.931732,221.812332 
	C246.596710,231.430603 252.217590,241.074829 258.227570,251.338959 
M78.584534,236.943024 
	C91.453728,229.317093 104.336601,221.714035 117.175835,214.037994 
	C118.893890,213.010834 121.633522,212.176361 119.899910,209.235733 
	C113.913780,199.081833 109.473709,188.213104 104.962456,176.298706 
	C94.334862,197.287903 84.139870,217.422714 73.982307,237.483612 
	C76.130707,238.827774 76.995544,237.730057 78.584534,236.943024 
M99.833275,235.391235 
	C94.031990,238.887039 88.230705,242.382828 82.429413,245.878616 
	C82.587364,246.278961 82.745323,246.679306 82.903275,247.079636 
	C103.465141,246.085632 124.027008,245.091629 145.795639,244.039276 
	C138.853149,236.338623 133.286652,229.548294 128.291977,222.318176 
	C126.549446,219.795761 124.766930,220.620743 122.759964,221.819855 
	C115.344475,226.250443 107.903954,230.639084 99.833275,235.391235 
M225.127518,161.792923 
	C224.560303,161.099167 223.837021,160.603027 222.984222,161.101974 
	C218.733597,163.588898 214.282272,165.786270 210.212326,169.429169 
	C217.170013,181.274338 224.027527,192.948929 231.429367,205.550232 
	C233.957413,197.398758 235.652740,190.148941 236.320572,182.857391 
	C236.692917,178.792099 232.840073,175.506165 230.893890,171.869995 
	C229.170029,168.649200 227.312225,165.500076 225.127518,161.792923 
M206.248672,131.101593 
	C199.228516,129.017471 192.208359,126.933342 183.938049,124.478081 
	C191.444458,137.308899 198.187881,148.835541 205.170853,160.771652 
	C210.205154,157.700790 214.670837,154.976761 219.542145,152.005325 
	C215.124924,144.858139 212.238205,137.425446 206.248672,131.101593 
M87.159637,274.207458 
	C88.400757,274.979736 89.445038,276.165375 91.843613,276.086792 
	C95.267944,269.707306 98.855377,263.023956 102.975601,255.348022 
	C91.434990,257.062836 80.972794,255.209991 70.317726,258.031616 
	C74.826859,264.765778 80.669479,269.329193 87.159637,274.207458 
M241.738174,158.428696 
	C242.221252,155.450394 243.507980,152.581802 243.301071,148.981384 
	C239.402344,151.133728 235.845413,152.809067 232.775177,155.672409 
	C234.757538,159.559677 236.441742,163.407074 239.805664,167.065552 
	C240.525192,164.015823 241.089676,161.623184 241.738174,158.428696 
M235.500961,139.349167 
	C230.980423,138.396973 226.719849,136.209717 221.334015,136.008850 
	C223.056046,139.072510 224.387787,141.537521 225.815628,143.945572 
	C226.650620,145.353775 227.676163,147.336334 229.580444,145.818146 
	C232.046112,143.852386 236.263931,144.035477 236.956284,139.923996 
	C236.972397,139.828308 236.404541,139.634293 235.500961,139.349167 
M178.605408,271.840820 
	C177.048325,271.002014 175.852554,269.478149 173.503143,269.236816 
	C174.441513,272.485535 175.859039,275.116089 177.939423,277.304291 
	C179.759750,276.973083 181.081802,276.418396 181.820374,274.951996 
	C181.709534,274.614471 181.701248,274.205444 181.494339,274.027985 
	C180.741135,273.381989 179.921524,272.813446 178.605408,271.840820 
z"/>
</svg>